<svg data-v-fde0c5aa="" xmlns="http://www.w3.org/2000/svg" viewBox="0 0 300 300" class="font"><!----><defs data-v-fde0c5aa=""><!----></defs><rect data-v-fde0c5aa="" fill="transparent" x="0" y="0" width="300px" height="300px" class="logo-background-square"></rect><defs data-v-fde0c5aa=""><linearGradient data-v-fde0c5aa="" gradientTransform="rotate(25)" id="5cdbcb48-4ff1-4477-8d4b-132eab265ba9" x1="0%" y1="0%" x2="100%" y2="0%"><stop data-v-fde0c5aa="" offset="0%" stop-color="#563F33" stop-opacity="1"></stop><stop data-v-fde0c5aa="" offset="100%" stop-color="#A3A1A1" stop-opacity="1"></stop></linearGradient></defs><g data-v-fde0c5aa="" id="dcc81c0c-417a-400f-bc1b-84bf402357ce" fill="url(#5cdbcb48-4ff1-4477-8d4b-132eab265ba9)" transform="matrix(3.2630082282896327,0,0,3.2630082282896327,38.49901618775811,133.02470949846077)"><path d="M0.46 5.56C0.46 8.61 2.14 10.05 4.52 10.05C5.63 10.05 6.58 9.72 6.99 9.42C7.41 9.14 7.38 7.78 6.87 8.08C6.45 8.32 5.54 8.61 4.73 8.61C3.36 8.61 2.18 7.70 2.18 5.56C2.18 3.39 3.36 2.48 4.73 2.48C5.54 2.48 6.45 2.77 6.87 3.02C7.38 3.32 7.41 1.97 6.99 1.68C6.58 1.37 5.63 1.04 4.52 1.04C2.14 1.04 0.46 2.48 0.46 5.56ZM11.35 10.05C13.44 10.05 14.66 8.82 14.66 6.72C14.66 4.61 13.44 3.36 11.35 3.36C9.27 3.36 8.05 4.61 8.05 6.72C8.05 8.82 9.27 10.05 11.35 10.05ZM11.35 8.82C10.30 8.82 9.69 8.06 9.69 6.72C9.69 5.35 10.30 4.59 11.35 4.59C12.40 4.59 13.02 5.35 13.02 6.72C13.02 8.06 12.40 8.82 11.35 8.82ZM22.75 8.48C22.62 8.53 22.51 8.55 22.43 8.55C22.15 8.55 22.02 8.36 22.02 7.97L22.02 7.18L22.02 0.62C22.02-0.04 20.38 0.66 20.38 1.32L20.38 4.12C19.81 3.64 19.03 3.37 18.16 3.37C16.67 3.37 15.67 4.70 15.67 6.69C15.67 8.72 16.67 10.04 18.16 10.04C19.11 10.04 19.94 9.70 20.51 9.14C20.71 9.79 21.15 10.02 21.69 10.02C22.02 10.02 22.39 9.93 22.75 9.79C23.35 9.52 23.32 8.22 22.75 8.48ZM18.87 8.61C17.85 8.62 17.33 7.97 17.33 6.69C17.33 5.46 17.85 4.80 18.87 4.82C19.42 4.82 19.94 5.04 20.38 5.46L20.38 7.91C19.95 8.36 19.42 8.61 18.87 8.61ZM30.18 6.23C30.18 4.38 29.16 3.37 27.12 3.37C24.99 3.37 23.88 4.66 23.88 6.66C23.88 9.04 25.61 10.04 27.33 10.04C28.11 10.04 28.85 9.83 29.50 9.42C29.89 9.17 29.89 8.02 29.37 8.25C28.66 8.57 28.04 8.75 27.45 8.75C26.47 8.75 25.56 8.27 25.54 7.28C25.91 7.34 26.33 7.36 26.71 7.36C28.48 7.36 30.18 6.89 30.18 6.23ZM25.56 6.10C25.58 5.03 26.29 4.62 27.19 4.62C28.17 4.62 28.69 5.08 28.69 5.77C28.69 5.98 27.78 6.16 26.61 6.16C26.28 6.16 25.93 6.15 25.56 6.10ZM39.33 5.36C40.38 5.19 41.02 4.47 41.02 3.40C41.02 1.95 39.61 1.04 37.30 1.04C35.73 1.04 34.75 1.33 34.75 1.78L34.75 9.31C34.75 9.74 35.81 10.05 37.48 10.05C39.84 10.05 41.29 9.09 41.29 7.48C41.29 6.26 40.54 5.50 39.33 5.36ZM37.45 2.41C38.74 2.41 39.37 2.77 39.37 3.54C39.37 4.33 38.74 4.72 37.48 4.72L36.40 4.72L36.40 2.49C36.65 2.44 37.00 2.41 37.45 2.41ZM37.69 8.67C37.11 8.67 36.67 8.62 36.39 8.55L36.39 6.08L37.51 6.08C38.92 6.08 39.63 6.48 39.63 7.38C39.63 8.26 38.99 8.67 37.69 8.67ZM45.43 8.48C45.16 8.57 44.94 8.62 44.77 8.62C44.39 8.62 44.24 8.36 44.24 7.76L44.24 0.71C44.24 0.04 42.60 0.74 42.60 1.41L42.60 8.15C42.60 9.56 43.29 10.05 44.16 10.05C44.56 10.05 45.00 9.94 45.43 9.79C46.03 9.52 46.02 8.26 45.43 8.48ZM53.54 8.48C53.42 8.53 53.33 8.54 53.23 8.54C52.96 8.54 52.82 8.33 52.82 7.76L52.82 6.03C52.82 4.05 51.73 3.37 50.02 3.37C48.61 3.37 47.78 3.65 47.19 4.14C46.73 4.51 46.83 5.56 47.31 5.26C47.88 4.93 48.65 4.69 49.52 4.69C50.69 4.69 51.18 5.08 51.18 6.24L51.18 6.31C50.75 6.09 50.11 5.95 49.21 5.95C47.71 5.95 46.75 6.76 46.75 8.01C46.75 9.25 47.66 10.05 49.06 10.05C50.13 10.05 50.89 9.66 51.35 9.24C51.58 9.81 52.00 10.02 52.49 10.02C52.82 10.02 53.19 9.93 53.54 9.79C54.14 9.53 54.14 8.26 53.54 8.48ZM49.50 8.75C48.69 8.75 48.40 8.37 48.40 7.97C48.40 7.55 48.72 7.15 49.59 7.15C50.40 7.15 50.93 7.29 51.18 7.48L51.18 8.04C50.93 8.34 50.37 8.75 49.50 8.75ZM54.63 6.72C54.63 8.97 56.03 10.05 58.06 10.05C58.95 10.05 59.64 9.74 60.06 9.42C60.44 9.11 60.44 7.76 59.93 8.08C59.53 8.36 58.91 8.61 58.27 8.61C57.20 8.61 56.27 8.19 56.27 6.72C56.27 5.24 57.20 4.80 58.27 4.80C58.91 4.80 59.53 5.07 59.93 5.35C60.42 5.68 60.44 4.31 60.06 3.99C59.64 3.65 58.95 3.36 58.06 3.36C56.03 3.36 54.63 4.42 54.63 6.72ZM67.41 8.50C66.57 8.79 66.15 8.16 65.74 7.50C65.56 7.20 65.38 6.89 65.17 6.65C66.12 5.80 66.95 4.90 67.82 3.81C68.24 3.28 66.42 3.26 65.98 3.81C65.04 4.96 64.39 5.60 63.35 6.43L63.35 0.63C63.35-0.03 61.71 0.67 61.71 1.33L61.71 9.63C61.71 10.19 63.35 10.19 63.35 9.63L63.35 8.12C63.62 7.92 63.85 7.74 64.11 7.55C64.36 7.84 64.58 8.19 64.82 8.54C65.41 9.48 66.02 10.39 67.45 9.90C68.04 9.69 67.97 8.29 67.41 8.50Z"></path></g><!----><!----></svg>